<?xml version="1.0" encoding="utf-8"?>
<!-- Svg Vector Icons : http://www.onlinewebfonts.com/icon -->
<!DOCTYPE svg PUBLIC "-//W3C//DTD SVG 1.1//EN" "http://www.w3.org/Graphics/SVG/1.1/DTD/svg11.dtd">
<svg version="1.1" xmlns="http://www.w3.org/2000/svg" xmlns:xlink="http://www.w3.org/1999/xlink" x="0px" y="0px" viewBox="0 0 1000 1000" enable-background="new 0 0 1000 1000" xml:space="preserve">
<metadata> Svg Vector Icons : http://www.onlinewebfonts.com/icon </metadata>
<g><g transform="translate(0.000000,512.000000) scale(0.100000,-0.100000)"><path d="M281.9,4997c-113-53.6-181.9-164.7-181.9-294.9c0-105.3,103.4-388.7,239.4-653c451.9-888.6,1309.8-1849.9,2213.7-2479.9c239.4-166.6,584.1-369.6,856-507.5l218.3-109.2l59.4,76.6c78.5,99.6,308.3,329.4,406,404l76.6,61.3l-91.9,187.7c-377.3,766-986.2,1562.6-1627.7,2127.5c-530.4,467.2-955.6,766-1428.6,999.6C645.8,4997,412.1,5056.3,281.9,4997z"/><path d="M9483.3,5010.4c-15.3-5.7-84.3-26.8-153.2-49.8c-258.5-82.3-712.4-331.3-1091.5-599.4c-993.9-704.7-1817.3-1664.1-2330.5-2717.3l-72.8-149.4l86.2-68.9c109.2-88.1,316-294.9,396.4-396.4l59.4-76.6l218.3,109.2c1104.9,555.3,2054.8,1405.6,2772.9,2481.8c317.9,474.9,549.6,999.6,530.4,1196.9c-15.3,160.9-124.5,264.3-285.3,273.8C9558,5018,9498.7,5016.1,9483.3,5010.4z"/><path d="M4740,1517.5c-132.1-26.8-348.5-109.2-461.5-176.2c-139.8-82.3-417.5-358.1-499.8-497.9c-34.5-61.3-90-185.8-122.6-277.7c-57.4-158.9-61.3-183.8-61.3-446.2c0-262.4,3.8-287.2,61.3-446.2c78.5-220.2,158.9-354.3,317.9-522.8c145.5-155.1,310.2-270,490.2-342.8c404.1-164.7,886.6-130.2,1262,88.1c139.8,84.3,415.5,360,499.8,499.8c218.3,375.3,252.8,857.9,88.1,1262c-137.9,342.8-446.2,645.3-794.7,783.2C5304.9,1525.1,4958.3,1559.6,4740,1517.5z"/><path d="M3345.9-853.2c-1036-541.9-1903.5-1300.3-2585.2-2263.5C498.3-3486.3,257-3924.9,157.5-4208.3c-59.4-166.6-63.2-360-7.7-432.8c113-153.2,241.3-174.3,503.6-86.2c245.1,82.3,620.4,277.7,924.9,480.6C2654.6-3528.4,3501-2584.4,4060.2-1473.7l109.2,216.4l-57.4,47.9c-30.6,26.8-99.6,84.3-151.3,126.4c-49.8,44-143.6,141.7-208.7,220.2c-63.2,76.6-124.5,139.8-136,139.8C3604.4-723,3483.8-782.4,3345.9-853.2z"/><path d="M6249-866.7c-63.2-78.5-181.9-197.2-260.4-260.4c-78.5-65.1-143.6-128.3-143.6-139.8c1.9-32.6,226-457.7,363.8-687.5c633.8-1053.2,1700.5-2070.1,2723.1-2589c444.3-227.9,702.8-285.3,834.9-187.7c199.2,149.4,174.3,381.1-101.5,921.1C9142.5-2779.7,8135.2-1724.6,7059-1077.3C6842.6-947.1,6417.5-723,6384.9-723C6375.4-723,6314.1-788.1,6249-866.7z"/></g></g>
</svg>